<?xml version="1.0" encoding="us-ascii" standalone="no"?><svg xmlns="http://www.w3.org/2000/svg" xmlns:xlink="http://www.w3.org/1999/xlink" contentStyleType="text/css" height="1260px" preserveAspectRatio="none" style="width:840px;height:1260px;background:#FFFFFF;" version="1.1" viewBox="0 0 840 1260" width="840px" zoomAndPan="magnify"><defs/><g><text fill="#000000" font-family="sans-serif" font-size="14" font-weight="bold" lengthAdjust="spacing" textLength="251" x="295.5" y="29.5332">Edit Profil Admin Sequence Diagram</text><rect fill="none" height="719.7578" style="stroke:#000000;stroke-width:1.5;" width="823" x="10" y="441.7344"/><rect fill="none" height="337.7031" style="stroke:#000000;stroke-width:1.5;" width="803" x="20" y="709.8984"/><line style="stroke:#181818;stroke-width:0.5;stroke-dasharray:5.0,5.0;" x1="52" x2="52" y1="121.2188" y2="1178.4922"/><line style="stroke:#181818;stroke-width:0.5;stroke-dasharray:5.0,5.0;" x1="180" x2="180" y1="121.2188" y2="1178.4922"/><line style="stroke:#181818;stroke-width:0.5;stroke-dasharray:5.0,5.0;" x1="323" x2="323" y1="121.2188" y2="1178.4922"/><line style="stroke:#181818;stroke-width:0.5;stroke-dasharray:5.0,5.0;" x1="533" x2="533" y1="121.2188" y2="1178.4922"/><line style="stroke:#181818;stroke-width:0.5;stroke-dasharray:5.0,5.0;" x1="646" x2="646" y1="121.2188" y2="1178.4922"/><line style="stroke:#181818;stroke-width:0.5;stroke-dasharray:5.0,5.0;" x1="779" x2="779" y1="121.2188" y2="1178.4922"/><text fill="#000000" font-family="sans-serif" font-size="14" lengthAdjust="spacing" textLength="39" x="30" y="118.1426">Admin</text><ellipse cx="52.5" cy="52.1094" fill="#E2E2F0" rx="8" ry="8" style="stroke:#181818;stroke-width:0.5;"/><path d="M52.5,60.1094 L52.5,87.1094 M39.5,68.1094 L65.5,68.1094 M52.5,87.1094 L39.5,102.1094 M52.5,87.1094 L65.5,102.1094 " fill="none" style="stroke:#181818;stroke-width:0.5;"/><text fill="#000000" font-family="sans-serif" font-size="14" lengthAdjust="spacing" textLength="39" x="30" y="1192.0254">Admin</text><ellipse cx="52.5" cy="1203.6016" fill="#E2E2F0" rx="8" ry="8" style="stroke:#181818;stroke-width:0.5;"/><path d="M52.5,1211.6016 L52.5,1238.6016 M39.5,1219.6016 L65.5,1219.6016 M52.5,1238.6016 L39.5,1253.6016 M52.5,1238.6016 L65.5,1253.6016 " fill="none" style="stroke:#181818;stroke-width:0.5;"/><rect fill="#E2E2F0" height="31.6094" rx="2.5" ry="2.5" style="stroke:#181818;stroke-width:0.5;" width="85" x="138" y="88.6094"/><text fill="#000000" font-family="sans-serif" font-size="14" lengthAdjust="spacing" textLength="71" x="145" y="110.1426">Menu Profil</text><rect fill="#E2E2F0" height="31.6094" rx="2.5" ry="2.5" style="stroke:#181818;stroke-width:0.5;" width="85" x="138" y="1177.4922"/><text fill="#000000" font-family="sans-serif" font-size="14" lengthAdjust="spacing" textLength="71" x="145" y="1199.0254">Menu Profil</text><rect fill="#E2E2F0" height="31.6094" rx="2.5" ry="2.5" style="stroke:#181818;stroke-width:0.5;" width="79" x="284" y="88.6094"/><text fill="#000000" font-family="sans-serif" font-size="14" lengthAdjust="spacing" textLength="65" x="291" y="110.1426">View Profil</text><rect fill="#E2E2F0" height="31.6094" rx="2.5" ry="2.5" style="stroke:#181818;stroke-width:0.5;" width="79" x="284" y="1177.4922"/><text fill="#000000" font-family="sans-serif" font-size="14" lengthAdjust="spacing" textLength="65" x="291" y="1199.0254">View Profil</text><rect fill="#E2E2F0" height="31.6094" rx="2.5" ry="2.5" style="stroke:#181818;stroke-width:0.5;" width="111" x="478" y="88.6094"/><text fill="#000000" font-family="sans-serif" font-size="14" lengthAdjust="spacing" textLength="97" x="485" y="110.1426">Form Edit Profil</text><rect fill="#E2E2F0" height="31.6094" rx="2.5" ry="2.5" style="stroke:#181818;stroke-width:0.5;" width="111" x="478" y="1177.4922"/><text fill="#000000" font-family="sans-serif" font-size="14" lengthAdjust="spacing" textLength="97" x="485" y="1199.0254">Form Edit Profil</text><rect fill="#E2E2F0" height="31.6094" rx="2.5" ry="2.5" style="stroke:#181818;stroke-width:0.5;" width="95" x="599" y="88.6094"/><text fill="#000000" font-family="sans-serif" font-size="14" lengthAdjust="spacing" textLength="81" x="606" y="110.1426">Model Admin</text><rect fill="#E2E2F0" height="31.6094" rx="2.5" ry="2.5" style="stroke:#181818;stroke-width:0.5;" width="95" x="599" y="1177.4922"/><text fill="#000000" font-family="sans-serif" font-size="14" lengthAdjust="spacing" textLength="81" x="606" y="1199.0254">Model Admin</text><text fill="#000000" font-family="sans-serif" font-size="14" lengthAdjust="spacing" textLength="61" x="746" y="118.1426">Database</text><path d="M761.5,67.6094 C761.5,57.6094 779.5,57.6094 779.5,57.6094 C779.5,57.6094 797.5,57.6094 797.5,67.6094 L797.5,93.6094 C797.5,103.6094 779.5,103.6094 779.5,103.6094 C779.5,103.6094 761.5,103.6094 761.5,93.6094 L761.5,67.6094 " fill="#E2E2F0" style="stroke:#181818;stroke-width:1.5;"/><path d="M761.5,67.6094 C761.5,77.6094 779.5,77.6094 779.5,77.6094 C779.5,77.6094 797.5,77.6094 797.5,67.6094 " fill="none" style="stroke:#181818;stroke-width:1.5;"/><text fill="#000000" font-family="sans-serif" font-size="14" lengthAdjust="spacing" textLength="61" x="746" y="1192.0254">Database</text><path d="M761.5,1205.1016 C761.5,1195.1016 779.5,1195.1016 779.5,1195.1016 C779.5,1195.1016 797.5,1195.1016 797.5,1205.1016 L797.5,1231.1016 C797.5,1241.1016 779.5,1241.1016 779.5,1241.1016 C779.5,1241.1016 761.5,1241.1016 761.5,1231.1016 L761.5,1205.1016 " fill="#E2E2F0" style="stroke:#181818;stroke-width:1.5;"/><path d="M761.5,1205.1016 C761.5,1215.1016 779.5,1215.1016 779.5,1215.1016 C779.5,1215.1016 797.5,1215.1016 797.5,1205.1016 " fill="none" style="stroke:#181818;stroke-width:1.5;"/><polygon fill="#181818" points="168.5,149.5703,178.5,153.5703,168.5,157.5703,172.5,153.5703" style="stroke:#181818;stroke-width:1.0;"/><line style="stroke:#181818;stroke-width:1.0;" x1="52.5" x2="174.5" y1="153.5703" y2="153.5703"/><text fill="#000000" font-family="sans-serif" font-size="13" lengthAdjust="spacing" textLength="104" x="59.5" y="148.7139">Akses menu profil</text><polygon fill="#181818" points="311.5,179.9219,321.5,183.9219,311.5,187.9219,315.5,183.9219" style="stroke:#181818;stroke-width:1.0;"/><line style="stroke:#181818;stroke-width:1.0;" x1="180.5" x2="317.5" y1="183.9219" y2="183.9219"/><text fill="#000000" font-family="sans-serif" font-size="13" lengthAdjust="spacing" textLength="108" x="187.5" y="179.0654">Request data profil</text><polygon fill="#181818" points="634.5,210.2734,644.5,214.2734,634.5,218.2734,638.5,214.2734" style="stroke:#181818;stroke-width:1.0;"/><line style="stroke:#181818;stroke-width:1.0;" x1="323.5" x2="640.5" y1="214.2734" y2="214.2734"/><text fill="#000000" font-family="sans-serif" font-size="13" lengthAdjust="spacing" textLength="93" x="330.5" y="209.417">Ambil data profil</text><polygon fill="#181818" points="767.5,240.625,777.5,244.625,767.5,248.625,771.5,244.625" style="stroke:#181818;stroke-width:1.0;"/><line style="stroke:#181818;stroke-width:1.0;" x1="646.5" x2="773.5" y1="244.625" y2="244.625"/><text fill="#000000" font-family="sans-serif" font-size="13" lengthAdjust="spacing" textLength="95" x="653.5" y="239.7686">Query data profil</text><polygon fill="#181818" points="657.5,270.9766,647.5,274.9766,657.5,278.9766,653.5,274.9766" style="stroke:#181818;stroke-width:1.0;"/><line style="stroke:#181818;stroke-width:1.0;stroke-dasharray:2.0,2.0;" x1="651.5" x2="778.5" y1="274.9766" y2="274.9766"/><text fill="#000000" font-family="sans-serif" font-size="13" lengthAdjust="spacing" textLength="58" x="663.5" y="270.1201">Data profil</text><polygon fill="#181818" points="334.5,301.3281,324.5,305.3281,334.5,309.3281,330.5,305.3281" style="stroke:#181818;stroke-width:1.0;"/><line style="stroke:#181818;stroke-width:1.0;stroke-dasharray:2.0,2.0;" x1="328.5" x2="645.5" y1="305.3281" y2="305.3281"/><text fill="#000000" font-family="sans-serif" font-size="13" lengthAdjust="spacing" textLength="90" x="340.5" y="300.4717">Kirim data profil</text><polygon fill="#181818" points="191.5,331.6797,181.5,335.6797,191.5,339.6797,187.5,335.6797" style="stroke:#181818;stroke-width:1.0;"/><line style="stroke:#181818;stroke-width:1.0;stroke-dasharray:2.0,2.0;" x1="185.5" x2="322.5" y1="335.6797" y2="335.6797"/><text fill="#000000" font-family="sans-serif" font-size="13" lengthAdjust="spacing" textLength="119" x="197.5" y="330.8232">Tampilkan data profil</text><polygon fill="#181818" points="168.5,362.0313,178.5,366.0313,168.5,370.0313,172.5,366.0313" style="stroke:#181818;stroke-width:1.0;"/><line style="stroke:#181818;stroke-width:1.0;" x1="52.5" x2="174.5" y1="366.0313" y2="366.0313"/><text fill="#000000" font-family="sans-serif" font-size="13" lengthAdjust="spacing" textLength="81" x="59.5" y="361.1748">Pilih edit profil</text><polygon fill="#181818" points="521.5,392.3828,531.5,396.3828,521.5,400.3828,525.5,396.3828" style="stroke:#181818;stroke-width:1.0;"/><line style="stroke:#181818;stroke-width:1.0;" x1="180.5" x2="527.5" y1="396.3828" y2="396.3828"/><text fill="#000000" font-family="sans-serif" font-size="13" lengthAdjust="spacing" textLength="84" x="187.5" y="391.5264">Buka form edit</text><polygon fill="#181818" points="63.5,422.7344,53.5,426.7344,63.5,430.7344,59.5,426.7344" style="stroke:#181818;stroke-width:1.0;"/><line style="stroke:#181818;stroke-width:1.0;" x1="57.5" x2="532.5" y1="426.7344" y2="426.7344"/><text fill="#000000" font-family="sans-serif" font-size="13" lengthAdjust="spacing" textLength="194" x="69.5" y="421.8779">Tampilkan form dengan data profil</text><path d="M10,441.7344 L71,441.7344 L71,450.0859 L61,460.0859 L10,460.0859 L10,441.7344 " fill="#EEEEEE" style="stroke:#000000;stroke-width:1.5;"/><rect fill="none" height="719.7578" style="stroke:#000000;stroke-width:1.5;" width="823" x="10" y="441.7344"/><text fill="#000000" font-family="sans-serif" font-size="13" font-weight="bold" lengthAdjust="spacing" textLength="16" x="25" y="456.2295">alt</text><text fill="#000000" font-family="sans-serif" font-size="11" font-weight="bold" lengthAdjust="spacing" textLength="136" x="86" y="455.1533">[Admin memilih simpan]</text><polygon fill="#181818" points="521.5,478.4375,531.5,482.4375,521.5,486.4375,525.5,482.4375" style="stroke:#181818;stroke-width:1.0;"/><line style="stroke:#181818;stroke-width:1.0;" x1="52.5" x2="527.5" y1="482.4375" y2="482.4375"/><text fill="#000000" font-family="sans-serif" font-size="13" lengthAdjust="spacing" textLength="111" x="59.5" y="477.5811">Klik tombol simpan</text><polygon fill="#181818" points="334.5,508.7891,324.5,512.7891,334.5,516.7891,330.5,512.7891" style="stroke:#181818;stroke-width:1.0;"/><line style="stroke:#181818;stroke-width:1.0;" x1="328.5" x2="532.5" y1="512.7891" y2="512.7891"/><text fill="#000000" font-family="sans-serif" font-size="13" lengthAdjust="spacing" textLength="105" x="340.5" y="507.9326">Submit perubahan</text><polygon fill="#181818" points="634.5,539.1406,644.5,543.1406,634.5,547.1406,638.5,543.1406" style="stroke:#181818;stroke-width:1.0;"/><line style="stroke:#181818;stroke-width:1.0;" x1="323.5" x2="640.5" y1="543.1406" y2="543.1406"/><text fill="#000000" font-family="sans-serif" font-size="13" lengthAdjust="spacing" textLength="110" x="330.5" y="538.2842">Validasi perubahan</text><polygon fill="#181818" points="767.5,569.4922,777.5,573.4922,767.5,577.4922,771.5,573.4922" style="stroke:#181818;stroke-width:1.0;"/><line style="stroke:#181818;stroke-width:1.0;" x1="646.5" x2="773.5" y1="573.4922" y2="573.4922"/><text fill="#000000" font-family="sans-serif" font-size="13" lengthAdjust="spacing" textLength="101" x="653.5" y="568.6357">Update data profil</text><polygon fill="#181818" points="657.5,599.8438,647.5,603.8438,657.5,607.8438,653.5,603.8438" style="stroke:#181818;stroke-width:1.0;"/><line style="stroke:#181818;stroke-width:1.0;stroke-dasharray:2.0,2.0;" x1="651.5" x2="778.5" y1="603.8438" y2="603.8438"/><text fill="#000000" font-family="sans-serif" font-size="13" lengthAdjust="spacing" textLength="104" x="663.5" y="598.9873">Konfirmasi update</text><polygon fill="#181818" points="334.5,630.1953,324.5,634.1953,334.5,638.1953,330.5,634.1953" style="stroke:#181818;stroke-width:1.0;"/><line style="stroke:#181818;stroke-width:1.0;stroke-dasharray:2.0,2.0;" x1="328.5" x2="645.5" y1="634.1953" y2="634.1953"/><text fill="#000000" font-family="sans-serif" font-size="13" lengthAdjust="spacing" textLength="81" x="340.5" y="629.3389">Status update</text><polygon fill="#181818" points="521.5,660.5469,531.5,664.5469,521.5,668.5469,525.5,664.5469" style="stroke:#181818;stroke-width:1.0;"/><line style="stroke:#181818;stroke-width:1.0;stroke-dasharray:2.0,2.0;" x1="323.5" x2="527.5" y1="664.5469" y2="664.5469"/><text fill="#000000" font-family="sans-serif" font-size="13" lengthAdjust="spacing" textLength="186" x="330.5" y="659.6904">Tampilkan konfirmasi perubahan</text><polygon fill="#181818" points="63.5,690.8984,53.5,694.8984,63.5,698.8984,59.5,694.8984" style="stroke:#181818;stroke-width:1.0;"/><line style="stroke:#181818;stroke-width:1.0;" x1="57.5" x2="532.5" y1="694.8984" y2="694.8984"/><text fill="#000000" font-family="sans-serif" font-size="13" lengthAdjust="spacing" textLength="122" x="69.5" y="690.042">Tampilkan konfirmasi</text><path d="M20,709.8984 L81,709.8984 L81,718.25 L71,728.25 L20,728.25 L20,709.8984 " fill="#EEEEEE" style="stroke:#000000;stroke-width:1.5;"/><rect fill="none" height="337.7031" style="stroke:#000000;stroke-width:1.5;" width="803" x="20" y="709.8984"/><text fill="#000000" font-family="sans-serif" font-size="13" font-weight="bold" lengthAdjust="spacing" textLength="16" x="35" y="724.3936">alt</text><text fill="#000000" font-family="sans-serif" font-size="11" font-weight="bold" lengthAdjust="spacing" textLength="144" x="96" y="723.3174">[Admin setuju perubahan]</text><polygon fill="#181818" points="521.5,746.6016,531.5,750.6016,521.5,754.6016,525.5,750.6016" style="stroke:#181818;stroke-width:1.0;"/><line style="stroke:#181818;stroke-width:1.0;" x1="52.5" x2="527.5" y1="750.6016" y2="750.6016"/><text fill="#000000" font-family="sans-serif" font-size="13" lengthAdjust="spacing" textLength="125" x="59.5" y="745.7451">Konfirmasi perubahan</text><polygon fill="#181818" points="334.5,776.9531,324.5,780.9531,334.5,784.9531,330.5,780.9531" style="stroke:#181818;stroke-width:1.0;"/><line style="stroke:#181818;stroke-width:1.0;" x1="328.5" x2="532.5" y1="780.9531" y2="780.9531"/><text fill="#000000" font-family="sans-serif" font-size="13" lengthAdjust="spacing" textLength="105" x="340.5" y="776.0967">Proses perubahan</text><polygon fill="#181818" points="634.5,807.3047,644.5,811.3047,634.5,815.3047,638.5,811.3047" style="stroke:#181818;stroke-width:1.0;"/><line style="stroke:#181818;stroke-width:1.0;" x1="323.5" x2="640.5" y1="811.3047" y2="811.3047"/><text fill="#000000" font-family="sans-serif" font-size="13" lengthAdjust="spacing" textLength="108" x="330.5" y="806.4482">Simpan perubahan</text><polygon fill="#181818" points="767.5,837.6563,777.5,841.6563,767.5,845.6563,771.5,841.6563" style="stroke:#181818;stroke-width:1.0;"/><line style="stroke:#181818;stroke-width:1.0;" x1="646.5" x2="773.5" y1="841.6563" y2="841.6563"/><text fill="#000000" font-family="sans-serif" font-size="13" lengthAdjust="spacing" textLength="109" x="653.5" y="836.7998">Commit perubahan</text><polygon fill="#181818" points="657.5,868.0078,647.5,872.0078,657.5,876.0078,653.5,872.0078" style="stroke:#181818;stroke-width:1.0;"/><line style="stroke:#181818;stroke-width:1.0;stroke-dasharray:2.0,2.0;" x1="651.5" x2="778.5" y1="872.0078" y2="872.0078"/><text fill="#000000" font-family="sans-serif" font-size="13" lengthAdjust="spacing" textLength="88" x="663.5" y="867.1514">Konfirmasi final</text><polygon fill="#181818" points="334.5,898.3594,324.5,902.3594,334.5,906.3594,330.5,902.3594" style="stroke:#181818;stroke-width:1.0;"/><line style="stroke:#181818;stroke-width:1.0;stroke-dasharray:2.0,2.0;" x1="328.5" x2="645.5" y1="902.3594" y2="902.3594"/><text fill="#000000" font-family="sans-serif" font-size="13" lengthAdjust="spacing" textLength="65" x="340.5" y="897.5029">Status final</text><polygon fill="#181818" points="63.5,928.7109,53.5,932.7109,63.5,936.7109,59.5,932.7109" style="stroke:#181818;stroke-width:1.0;"/><line style="stroke:#181818;stroke-width:1.0;stroke-dasharray:2.0,2.0;" x1="57.5" x2="322.5" y1="932.7109" y2="932.7109"/><text fill="#000000" font-family="sans-serif" font-size="13" lengthAdjust="spacing" textLength="130" x="69.5" y="927.8545">Redirect ke dashboard</text><line style="stroke:#000000;stroke-width:1.0;stroke-dasharray:2.0,2.0;" x1="20" x2="823" y1="941.7109" y2="941.7109"/><text fill="#000000" font-family="sans-serif" font-size="11" font-weight="bold" lengthAdjust="spacing" textLength="93" x="25" y="953.1299">[Admin batalkan]</text><polygon fill="#181818" points="521.5,974.8984,531.5,978.8984,521.5,982.8984,525.5,978.8984" style="stroke:#181818;stroke-width:1.0;"/><line style="stroke:#181818;stroke-width:1.0;" x1="52.5" x2="527.5" y1="978.8984" y2="978.8984"/><text fill="#000000" font-family="sans-serif" font-size="13" lengthAdjust="spacing" textLength="115" x="59.5" y="974.042">Batalkan perubahan</text><polygon fill="#181818" points="334.5,1005.25,324.5,1009.25,334.5,1013.25,330.5,1009.25" style="stroke:#181818;stroke-width:1.0;"/><line style="stroke:#181818;stroke-width:1.0;" x1="328.5" x2="532.5" y1="1009.25" y2="1009.25"/><text fill="#000000" font-family="sans-serif" font-size="13" lengthAdjust="spacing" textLength="95" x="340.5" y="1004.3936">Abort perubahan</text><polygon fill="#181818" points="63.5,1035.6016,53.5,1039.6016,63.5,1043.6016,59.5,1039.6016" style="stroke:#181818;stroke-width:1.0;"/><line style="stroke:#181818;stroke-width:1.0;stroke-dasharray:2.0,2.0;" x1="57.5" x2="322.5" y1="1039.6016" y2="1039.6016"/><text fill="#000000" font-family="sans-serif" font-size="13" lengthAdjust="spacing" textLength="149" x="69.5" y="1034.7451">Kembali ke tampilan profil</text><line style="stroke:#000000;stroke-width:1.0;stroke-dasharray:2.0,2.0;" x1="10" x2="833" y1="1055.6016" y2="1055.6016"/><text fill="#000000" font-family="sans-serif" font-size="11" font-weight="bold" lengthAdjust="spacing" textLength="121" x="15" y="1067.0205">[Admin memilih batal]</text><polygon fill="#181818" points="521.5,1088.7891,531.5,1092.7891,521.5,1096.7891,525.5,1092.7891" style="stroke:#181818;stroke-width:1.0;"/><line style="stroke:#181818;stroke-width:1.0;" x1="52.5" x2="527.5" y1="1092.7891" y2="1092.7891"/><text fill="#000000" font-family="sans-serif" font-size="13" lengthAdjust="spacing" textLength="97" x="59.5" y="1087.9326">Klik tombol batal</text><polygon fill="#181818" points="334.5,1119.1406,324.5,1123.1406,334.5,1127.1406,330.5,1123.1406" style="stroke:#181818;stroke-width:1.0;"/><line style="stroke:#181818;stroke-width:1.0;" x1="328.5" x2="532.5" y1="1123.1406" y2="1123.1406"/><text fill="#000000" font-family="sans-serif" font-size="13" lengthAdjust="spacing" textLength="95" x="340.5" y="1118.2842">Abort perubahan</text><polygon fill="#181818" points="63.5,1149.4922,53.5,1153.4922,63.5,1157.4922,59.5,1153.4922" style="stroke:#181818;stroke-width:1.0;"/><line style="stroke:#181818;stroke-width:1.0;stroke-dasharray:2.0,2.0;" x1="57.5" x2="322.5" y1="1153.4922" y2="1153.4922"/><text fill="#000000" font-family="sans-serif" font-size="13" lengthAdjust="spacing" textLength="149" x="69.5" y="1148.6357">Kembali ke tampilan profil</text><!--SRC=[ZPFBZgCm44Nt_efIx_c1B2BHhqs4n7Hws9jGwLHZOyOFZVhlspOms2GJTHOeubRLlJukB5c1yDAHXLghCmaeEqa37F6Fm-64y4pyGtF963zPfIULZLnREj781miF5GvkRdu0Rg2gSxqX_9lgpKP_LLgc2MBHwykcgb8Tpk4cbv9rtFAM6vzn_iDOr8jzLU-Wx0qQa27S6EUogYxsZLVUmjcCXT2_Q8tNgj9toTOpI9MgBFQBmGv-ETHVcRvenJJWEM-T70-aIMxzffZlN8uaUZvaSdgGcWHT00EWv20Uq0uUNS_X7FW5cVbtnJvsfdEZtk7miVNWmiwtBL564qFIqsRWVtE0Q7CGr8DLibKYBObsuNX7rygG3hLh-MLM5w8D5zHnGnivn_fxzCamYnUADcmFQZYJbc6OYmtBf3c6vTQPL8gKun5M7Fqw94zqczvQ7elYOmLdqBfFjnbqXUz_ZXb4l_nXOQyh5f37IFv6GOxoISdhoxWFyqm35-cuZ6UkHgGpfJU_THfF5lfmTURIAgwxM8d2VvOJejRR1f8tqJpEuZqmPQkqlStbNv83ojRlMGXYuzM5aUiUuT2n9DAoxZ7QtMrVA-x6-M4K7mE-0G00]--></g></svg>